<?xml version="1.0" encoding="iso-8859-1"?>
<!-- Generator: Adobe Illustrator 21.1.0, SVG Export Plug-In . SVG Version: 6.00 Build 0)  -->
<svg version="1.1" id="Layer_1" xmlns="http://www.w3.org/2000/svg" xmlns:xlink="http://www.w3.org/1999/xlink" x="0px" y="0px"
	 viewBox="0 0 24 24" enable-background="new 0 0 24 24" xml:space="preserve">
<g>
	<path fill="#303C42" d="M23.5,8.0001717h-4.2369385l-5.3509521-7.7832031
		c-0.1567383-0.2280273-0.4672852-0.2856445-0.6953125-0.1289063c-0.2275391,0.1567383-0.2851563,0.4677734-0.1289063,0.6953125
		l4.9615479,7.2167969H5.9505615l4.9615479-7.2167969c0.15625-0.2275391,0.0986328-0.5385742-0.1289063-0.6953125
		c-0.2265625-0.1567383-0.5380859-0.0991211-0.6953125,0.1289063L4.7369385,8.0001717H0.5c-0.2763672,0-0.5,0.2236328-0.5,0.5
		s0.2236328,0.5,0.5,0.5h0.6450806l2.9140015,8.3256836c0.3505859,1.0014648,1.2988281,1.6743164,2.3598633,1.6743164h0.1063843
		c0.2537842,2.7989502,2.6107178,5,5.4746704,5s5.2208862-2.2010498,5.4746704-5h0.1063843
		c1.0610352,0,2.0092773-0.6728516,2.3598633-1.6743164l2.9140015-8.3256836H23.5c0.2763672,0,0.5-0.2236328,0.5-0.5
		S23.7763672,8.0001717,23.5,8.0001717z"/>
	<circle fill="#7CB342" cx="12" cy="18.5001717" r="4.5"/>
	<path fill="#E6E6E5" d="M18.996582,16.9957771c-0.2099609,0.6005859-0.7788086,1.0043945-1.4155273,1.0043945h-0.1063843
		c-0.2537842-2.7989502-2.6107178-5-5.4746704-5s-5.2208862,2.2010498-5.4746704,5H6.4189453
		c-0.6367188,0-1.2055664-0.4038086-1.4155273-1.0043945L2.2049561,9.0001717h19.5900879L18.996582,16.9957771z"/>
	<path fill="#303C42" d="M14,18.0001717h-1.5v-1.5c0-0.2763672-0.2236328-0.5-0.5-0.5s-0.5,0.2236328-0.5,0.5v1.5H10
		c-0.2763672,0-0.5,0.2236328-0.5,0.5s0.2236328,0.5,0.5,0.5h1.5v1.5c0,0.2763672,0.2236328,0.5,0.5,0.5s0.5-0.2236328,0.5-0.5v-1.5
		H14c0.2763672,0,0.5-0.2236328,0.5-0.5S14.2763672,18.0001717,14,18.0001717z"/>
	<path opacity="0.2" fill="#FFFFFF" d="M8,19.0001717c0-2.4814453,2.0185547-4.5,4.5-4.5
		c1.1132202,0,2.1201782,0.4213867,2.9066162,1.0933838C14.5806274,14.6269417,13.3682251,14.0001717,12,14.0001717
		c-2.4814453,0-4.5,2.0185547-4.5,4.5c0,1.3682251,0.62677,2.5806274,1.5933838,3.4066162
		C8.4213867,21.1203499,8,20.1133919,8,19.0001717z"/>
	<linearGradient id="SVGID_1_" gradientUnits="userSpaceOnUse" x1="7.102478" y1="4.1026497" x2="19.6009712" y2="16.6011429">
		<stop  offset="0" style="stop-color:#010101;stop-opacity:0.1"/>
		<stop  offset="1" style="stop-color:#010101;stop-opacity:0"/>
	</linearGradient>
	<path fill="url(#SVGID_1_)" d="M12,13.0001717c2.8639526,0,5.2208862,2.2010498,5.4746704,5h0.1063843
		c0.6367188,0,1.2055664-0.4038086,1.4155273-1.0043945l2.7984619-7.9956055H2.2049561l5.7797852,5.7797852
		C8.9892578,13.6953011,10.4081421,13.0001717,12,13.0001717z"/>
	<linearGradient id="SVGID_2_" gradientUnits="userSpaceOnUse" x1="0.795238" y1="6.6834731" x2="20.6088943" y2="15.9227324">
		<stop  offset="0" style="stop-color:#FFFFFF;stop-opacity:0.2"/>
		<stop  offset="1" style="stop-color:#FFFFFF;stop-opacity:0"/>
	</linearGradient>
	<path fill="url(#SVGID_2_)" d="M23.5,8.0001717h-4.2369385l-5.3509521-7.7832031
		c-0.1567383-0.2280273-0.4672852-0.2856445-0.6953125-0.1289063c-0.2275391,0.1567383-0.2851563,0.4677734-0.1289063,0.6953125
		l4.9615479,7.2167969H5.9505615l4.9615479-7.2167969c0.15625-0.2275391,0.0986328-0.5385742-0.1289063-0.6953125
		c-0.2265625-0.1567383-0.5380859-0.0991211-0.6953125,0.1289063L4.7369385,8.0001717H0.5c-0.2763672,0-0.5,0.2236328-0.5,0.5
		s0.2236328,0.5,0.5,0.5h0.6450806l2.9140015,8.3256836c0.3505859,1.0014648,1.2988281,1.6743164,2.3598633,1.6743164h0.1063843
		c0.2537842,2.7989502,2.6107178,5,5.4746704,5s5.2208862-2.2010498,5.4746704-5h0.1063843
		c1.0610352,0,2.0092773-0.6728516,2.3598633-1.6743164l2.9140015-8.3256836H23.5c0.2763672,0,0.5-0.2236328,0.5-0.5
		S23.7763672,8.0001717,23.5,8.0001717z"/>
</g>
<g>
</g>
<g>
</g>
<g>
</g>
<g>
</g>
<g>
</g>
<g>
</g>
<g>
</g>
<g>
</g>
<g>
</g>
<g>
</g>
<g>
</g>
<g>
</g>
<g>
</g>
<g>
</g>
<g>
</g>
</svg>
